<?xml version="1.0" encoding="UTF-8" standalone="no"?>
<svg
   viewBox="0 0 800.66998 196.3"
   xml:space="preserve"
   version="1.1"
   id="svg19"
   sodipodi:docname="AF_CatecheSis_Logo_Navbar_Invertido_GM_optimized.svg"
   width="800.66998"
   height="196.3"
   inkscape:version="1.1.1 (26b7af14f2, 2022-01-19)"
   xmlns:inkscape="http://www.inkscape.org/namespaces/inkscape"
   xmlns:sodipodi="http://sodipodi.sourceforge.net/DTD/sodipodi-0.dtd"
   xmlns="http://www.w3.org/2000/svg"
   xmlns:svg="http://www.w3.org/2000/svg"><defs
     id="defs23" /><sodipodi:namedview
     id="namedview21"
     pagecolor="#505050"
     bordercolor="#eeeeee"
     borderopacity="1"
     inkscape:pageshadow="0"
     inkscape:pageopacity="0"
     inkscape:pagecheckerboard="0"
     showgrid="false"
     height="200px"
     fit-margin-top="20"
     fit-margin-left="20"
     fit-margin-right="20"
     fit-margin-bottom="20"
     lock-margins="true"
     inkscape:zoom="0.89875"
     inkscape:cx="369.95828"
     inkscape:cy="114.60362"
     inkscape:window-width="1680"
     inkscape:window-height="1023"
     inkscape:window-x="0"
     inkscape:window-y="27"
     inkscape:window-maximized="1"
     inkscape:current-layer="svg19" /><style
     id="style2">.st0{display:none}.st1{display:inline}.st5{fill:#0f406f}.st6{fill:#225280}.st12{font-family:'CenturyGothic'}.st13{font-size:24.224px}.st14{letter-spacing:9}.st15{font-size:157.7545px}.st16{fill:#fff}.st17{font-size:118.3159px}.st21{fill:#008fcf}</style><g
     id="Logo_CatecheSis"
     transform="translate(-0.34,-284.34)"><path
       class="st21"
       d="m 161.68,443.17 -1.22,1.16 c -0.88,-0.86 -1.84,-1.52 -2.89,-1.96 -1.05,-0.44 -2.06,-0.67 -3.06,-0.67 -1.23,0 -2.41,0.3 -3.53,0.91 -1.12,0.61 -1.98,1.43 -2.6,2.47 -0.61,1.04 -0.92,2.14 -0.92,3.29 0,1.18 0.32,2.31 0.95,3.38 a 6.782,6.782 0 0 0 2.63,2.52 c 1.12,0.61 2.35,0.92 3.68,0.92 1.62,0 2.99,-0.46 4.11,-1.37 1.12,-0.91 1.78,-2.1 1.99,-3.55 h -5.02 v -1.52 h 6.79 c -0.01,2.43 -0.74,4.37 -2.17,5.8 -1.43,1.43 -3.35,2.15 -5.74,2.15 -2.91,0 -5.22,-0.99 -6.92,-2.98 -1.31,-1.53 -1.96,-3.29 -1.96,-5.3 0,-1.49 0.37,-2.88 1.12,-4.17 a 8.023,8.023 0 0 1 3.08,-3.01 c 1.31,-0.72 2.78,-1.09 4.43,-1.09 1.33,0 2.59,0.24 3.77,0.72 1.21,0.46 2.36,1.24 3.48,2.3 z m 15.78,-2.65 h 9.03 v 1.54 h -7.45 V 447 h 7.39 v 1.54 h -7.39 v 6.19 h 7.39 v 1.54 h -8.96 v -15.75 z m 21.96,12.82 1.34,-0.8 c 0.94,1.74 2.03,2.6 3.27,2.6 0.53,0 1.02,-0.12 1.49,-0.37 0.46,-0.25 0.82,-0.58 1.06,-0.99 0.24,-0.41 0.36,-0.85 0.36,-1.32 0,-0.53 -0.18,-1.04 -0.54,-1.55 -0.49,-0.7 -1.39,-1.54 -2.7,-2.53 -1.31,-0.99 -2.13,-1.71 -2.45,-2.15 -0.56,-0.74 -0.83,-1.55 -0.83,-2.41 0,-0.69 0.16,-1.31 0.49,-1.87 0.33,-0.56 0.79,-1.01 1.39,-1.33 0.6,-0.33 1.24,-0.49 1.94,-0.49 0.74,0 1.44,0.18 2.08,0.55 0.65,0.37 1.33,1.04 2.05,2.03 l -1.29,0.97 c -0.59,-0.79 -1.1,-1.3 -1.52,-1.55 -0.42,-0.25 -0.87,-0.38 -1.37,-0.38 -0.64,0 -1.15,0.19 -1.56,0.58 -0.4,0.38 -0.6,0.86 -0.6,1.42 0,0.34 0.07,0.67 0.21,1 0.14,0.32 0.4,0.67 0.78,1.05 0.21,0.2 0.89,0.72 2.03,1.57 1.36,1.01 2.3,1.9 2.81,2.69 0.51,0.79 0.76,1.57 0.76,2.37 0,1.14 -0.43,2.13 -1.3,2.98 -0.87,0.84 -1.92,1.26 -3.16,1.26 -0.96,0 -1.82,-0.26 -2.6,-0.77 -0.76,-0.5 -1.48,-1.36 -2.14,-2.56 z m 22.83,-11.27 v -1.54 h 8.63 v 1.54 h -3.51 v 14.21 h -1.61 v -14.21 z m 29.18,-1.55 7.35,15.75 h -1.7 l -2.48,-5.18 h -6.79 l -2.45,5.18 h -1.76 l 7.44,-15.75 z m 2.95,-3.41 0.75,1.04 c -0.51,0.38 -0.95,0.63 -1.3,0.76 -0.35,0.13 -0.73,0.2 -1.12,0.2 -0.51,0 -1.04,-0.13 -1.58,-0.4 -0.46,-0.23 -0.76,-0.36 -0.89,-0.4 -0.17,-0.05 -0.36,-0.08 -0.56,-0.08 -0.25,0 -0.49,0.04 -0.71,0.13 -0.23,0.09 -0.55,0.29 -0.98,0.61 l -0.71,-1.09 c 0.65,-0.7 1.45,-1.05 2.41,-1.05 0.46,0 1,0.15 1.64,0.44 0.61,0.29 1.08,0.43 1.44,0.43 0.38,0 0.92,-0.2 1.61,-0.59 z m -3.15,6.76 -2.7,5.7 h 5.38 z m 29.33,-3.74 c 2.39,0 4.38,0.8 5.99,2.39 1.61,1.59 2.41,3.55 2.41,5.88 0,2.31 -0.8,4.26 -2.41,5.87 -1.6,1.61 -3.56,2.41 -5.87,2.41 -2.34,0 -4.31,-0.8 -5.92,-2.4 -1.61,-1.6 -2.41,-3.53 -2.41,-5.8 0,-1.51 0.37,-2.92 1.1,-4.21 a 8.08,8.08 0 0 1 2.99,-3.04 c 1.28,-0.74 2.65,-1.1 4.12,-1.1 z m 0.07,1.53 c -1.17,0 -2.27,0.3 -3.31,0.91 -1.04,0.61 -1.86,1.42 -2.45,2.45 -0.59,1.03 -0.88,2.18 -0.88,3.44 0,1.87 0.65,3.45 1.95,4.74 1.3,1.29 2.86,1.93 4.69,1.93 1.22,0 2.35,-0.3 3.39,-0.89 1.04,-0.59 1.85,-1.4 2.43,-2.43 0.58,-1.03 0.87,-2.17 0.87,-3.43 0,-1.25 -0.29,-2.38 -0.87,-3.39 -0.58,-1.01 -1.4,-1.82 -2.46,-2.43 -1.06,-0.61 -2.17,-0.9 -3.36,-0.9 z m 41.25,14.62 v -15.75 h 3.27 c 2.36,0 4.07,0.19 5.13,0.57 1.53,0.54 2.72,1.46 3.58,2.78 0.86,1.32 1.29,2.9 1.29,4.72 0,1.58 -0.34,2.97 -1.02,4.17 -0.68,1.2 -1.57,2.08 -2.66,2.66 -1.09,0.57 -2.61,0.86 -4.58,0.86 h -5.01 z m 1.51,-1.49 h 1.82 c 2.18,0 3.69,-0.14 4.53,-0.41 1.19,-0.39 2.12,-1.08 2.79,-2.08 0.68,-1 1.02,-2.23 1.02,-3.68 0,-1.52 -0.37,-2.82 -1.1,-3.89 -0.74,-1.08 -1.76,-1.81 -3.07,-2.21 -0.99,-0.3 -2.61,-0.45 -4.87,-0.45 h -1.11 v 12.72 z m 26.66,-14.27 h 9.03 v 1.54 h -7.45 V 447 h 7.39 v 1.54 h -7.39 v 6.19 h 7.39 v 1.54 h -8.96 v -15.75 z m 56.17,2.93 -1.24,0.95 c -0.69,-0.89 -1.51,-1.57 -2.47,-2.03 -0.96,-0.46 -2.01,-0.69 -3.16,-0.69 -1.26,0 -2.42,0.3 -3.49,0.9 -1.07,0.6 -1.9,1.41 -2.49,2.43 -0.59,1.02 -0.88,2.16 -0.88,3.43 0,1.92 0.66,3.52 1.98,4.81 1.32,1.29 2.98,1.93 4.98,1.93 2.21,0 4.05,-0.86 5.54,-2.59 l 1.24,0.94 c -0.79,1 -1.77,1.77 -2.94,2.32 -1.17,0.55 -2.49,0.82 -3.94,0.82 -2.76,0 -4.93,-0.92 -6.52,-2.75 -1.33,-1.55 -2,-3.42 -2,-5.61 0,-2.31 0.81,-4.25 2.43,-5.82 1.62,-1.57 3.64,-2.36 6.08,-2.36 1.47,0 2.8,0.29 3.98,0.87 1.18,0.58 2.15,1.4 2.9,2.45 z m 21.44,-2.93 7.35,15.75 h -1.7 l -2.48,-5.18 h -6.79 l -2.45,5.18 h -1.76 l 7.44,-15.75 z m -0.2,3.35 -2.7,5.7 h 5.39 z m 20.27,-1.8 v -1.54 h 8.63 v 1.54 h -3.51 v 14.21 h -1.61 v -14.21 z m 22.75,-1.55 h 9.03 v 1.54 h -7.45 V 447 h 7.39 v 1.54 h -7.39 v 6.19 h 7.39 v 1.54 h -8.96 v -15.75 z m 36.79,14.04 2.34,2.95 h -1.94 l -1.6,-2.04 c -1.29,0.79 -2.74,1.19 -4.35,1.19 -2.33,0 -4.3,-0.8 -5.91,-2.4 -1.6,-1.6 -2.41,-3.53 -2.41,-5.8 0,-1.51 0.37,-2.92 1.1,-4.21 0.74,-1.3 1.74,-2.31 3,-3.04 1.27,-0.73 2.66,-1.09 4.17,-1.09 2.33,0 4.3,0.8 5.9,2.39 1.6,1.6 2.4,3.56 2.4,5.88 0,1.21 -0.22,2.32 -0.66,3.33 -0.43,1.02 -1.11,1.96 -2.04,2.84 z m -0.98,-1.23 c 1.37,-1.34 2.06,-2.98 2.06,-4.94 0,-1.25 -0.29,-2.38 -0.87,-3.39 -0.58,-1.01 -1.4,-1.82 -2.46,-2.43 -1.06,-0.61 -2.17,-0.91 -3.34,-0.91 -1.18,0 -2.29,0.3 -3.33,0.91 a 6.45,6.45 0 0 0 -2.44,2.45 c -0.59,1.03 -0.88,2.18 -0.88,3.45 0,1.87 0.65,3.45 1.94,4.74 1.29,1.29 2.85,1.93 4.68,1.93 1.25,0 2.39,-0.3 3.43,-0.91 l -3.51,-4.45 h 1.91 z m 18.78,-12.81 h 1.57 v 9.51 c 0,1.13 0.02,1.83 0.06,2.11 0.08,0.62 0.26,1.14 0.55,1.56 0.29,0.42 0.72,0.77 1.32,1.05 0.59,0.28 1.19,0.42 1.79,0.42 0.52,0 1.02,-0.11 1.5,-0.33 0.48,-0.22 0.88,-0.53 1.2,-0.92 0.32,-0.39 0.56,-0.87 0.71,-1.42 0.11,-0.4 0.16,-1.22 0.16,-2.46 v -9.51 h 1.57 v 9.51 c 0,1.41 -0.14,2.54 -0.41,3.41 -0.27,0.87 -0.82,1.62 -1.65,2.26 -0.83,0.64 -1.82,0.96 -2.99,0.96 -1.27,0 -2.36,-0.3 -3.27,-0.91 -0.91,-0.61 -1.51,-1.41 -1.82,-2.41 -0.19,-0.61 -0.29,-1.72 -0.29,-3.32 z m 26.16,0 h 9.03 v 1.54 h -7.45 V 447 h 7.39 v 1.54 h -7.39 v 6.19 h 7.39 v 1.54 h -8.96 v -15.75 z m 21.96,12.82 1.34,-0.8 c 0.94,1.74 2.03,2.6 3.27,2.6 0.53,0 1.02,-0.12 1.49,-0.37 0.46,-0.25 0.82,-0.58 1.06,-0.99 0.24,-0.41 0.36,-0.85 0.36,-1.32 0,-0.53 -0.18,-1.04 -0.54,-1.55 -0.49,-0.7 -1.39,-1.54 -2.7,-2.53 -1.31,-0.99 -2.13,-1.71 -2.45,-2.15 -0.56,-0.74 -0.83,-1.55 -0.83,-2.41 0,-0.69 0.16,-1.31 0.49,-1.87 0.33,-0.56 0.79,-1.01 1.39,-1.33 0.6,-0.33 1.24,-0.49 1.94,-0.49 0.74,0 1.44,0.18 2.08,0.55 0.65,0.37 1.33,1.04 2.05,2.03 l -1.29,0.97 c -0.59,-0.79 -1.1,-1.3 -1.52,-1.55 -0.42,-0.25 -0.87,-0.38 -1.37,-0.38 -0.63,0 -1.15,0.19 -1.56,0.58 -0.4,0.38 -0.61,0.86 -0.61,1.42 0,0.34 0.07,0.67 0.21,1 0.14,0.32 0.4,0.67 0.78,1.05 0.21,0.2 0.89,0.72 2.04,1.57 1.36,1.01 2.3,1.9 2.8,2.69 0.5,0.79 0.76,1.57 0.76,2.37 0,1.14 -0.43,2.13 -1.3,2.98 -0.87,0.84 -1.92,1.26 -3.16,1.26 -0.96,0 -1.82,-0.26 -2.6,-0.77 -0.76,-0.5 -1.48,-1.36 -2.13,-2.56 z m 24.4,-12.82 h 9.03 v 1.54 h -7.45 V 447 h 7.39 v 1.54 h -7.39 v 6.19 h 7.39 v 1.54 h -8.96 v -15.75 z"
       id="path4" /><g
       id="g10"><path
         class="st6"
         d="m 618.44,435.46 10.13,-6.08 c 7.13,13.12 15.37,19.69 24.71,19.69 4,0 7.75,-0.93 11.26,-2.8 3.51,-1.86 6.18,-4.36 8.02,-7.49 1.84,-3.13 2.75,-6.45 2.75,-9.97 0,-4 -1.35,-7.91 -4.05,-11.75 -3.73,-5.29 -10.53,-11.67 -20.42,-19.12 -9.94,-7.51 -16.12,-12.94 -18.55,-16.29 -4.21,-5.62 -6.32,-11.69 -6.32,-18.23 0,-5.19 1.24,-9.91 3.73,-14.18 2.48,-4.27 5.98,-7.63 10.49,-10.09 4.51,-2.46 9.41,-3.69 14.71,-3.69 5.62,0 10.87,1.39 15.76,4.17 4.89,2.78 10.06,7.9 15.52,15.35 l -9.72,7.37 c -4.48,-5.94 -8.3,-9.86 -11.46,-11.75 -3.16,-1.89 -6.6,-2.84 -10.33,-2.84 -4.81,0 -8.74,1.46 -11.79,4.38 -3.05,2.92 -4.58,6.51 -4.58,10.78 0,2.59 0.54,5.1 1.62,7.54 1.08,2.43 3.05,5.08 5.92,7.94 1.57,1.51 6.7,5.48 15.39,11.91 10.32,7.62 17.39,14.4 21.23,20.34 3.83,5.94 5.75,11.91 5.75,17.91 0,8.64 -3.28,16.15 -9.84,22.52 -6.56,6.37 -14.54,9.56 -23.94,9.56 -7.24,0 -13.8,-1.93 -19.69,-5.79 -5.9,-3.84 -11.33,-10.31 -16.3,-19.39 z"
         id="path6" /><path
         class="st21"
         d="m 708.5,368.27 h 8.93 v 89.39 h -8.93 z m 20.17,72.74 7.6,-4.56 c 5.35,9.84 11.53,14.77 18.53,14.77 3,0 5.81,-0.7 8.45,-2.1 2.63,-1.4 4.64,-3.27 6.02,-5.62 1.38,-2.35 2.07,-4.84 2.07,-7.47 0,-3 -1.01,-5.93 -3.04,-8.81 -2.8,-3.97 -7.9,-8.75 -15.31,-14.34 -7.45,-5.63 -12.09,-9.7 -13.92,-12.21 -3.16,-4.21 -4.74,-8.77 -4.74,-13.67 0,-3.89 0.93,-7.43 2.79,-10.63 1.86,-3.2 4.49,-5.72 7.87,-7.57 3.38,-1.84 7.06,-2.77 11.03,-2.77 4.21,0 8.15,1.04 11.82,3.13 3.67,2.09 7.54,5.92 11.64,11.52 l -7.29,5.53 c -3.36,-4.46 -6.23,-7.39 -8.6,-8.81 -2.37,-1.42 -4.95,-2.13 -7.75,-2.13 -3.61,0 -6.55,1.09 -8.84,3.28 -2.29,2.19 -3.43,4.88 -3.43,8.08 0,1.94 0.4,3.83 1.22,5.65 0.81,1.82 2.29,3.81 4.44,5.96 1.17,1.13 5.02,4.11 11.55,8.93 7.74,5.71 13.04,10.8 15.92,15.25 2.88,4.46 4.31,8.93 4.31,13.43 0,6.48 -2.46,12.11 -7.38,16.89 -4.92,4.78 -10.91,7.17 -17.96,7.17 -5.43,0 -10.35,-1.45 -14.77,-4.34 -4.43,-2.9 -8.5,-7.75 -12.23,-14.56 z"
         id="path8" /></g><g
       id="g16"><path
         class="st5"
         d="m 136.84,329.47 -9.4,7.21 c -5.19,-6.75 -11.41,-11.87 -18.68,-15.35 -7.27,-3.48 -15.25,-5.23 -23.94,-5.23 -9.51,0 -18.31,2.28 -26.41,6.85 -8.1,4.56 -14.38,10.69 -18.84,18.39 -4.46,7.7 -6.68,16.35 -6.68,25.97 0,14.53 4.98,26.66 14.95,36.38 9.97,9.72 22.54,14.58 37.72,14.58 16.69,0 30.65,-6.53 41.89,-19.61 l 9.4,7.13 c -5.94,7.56 -13.36,13.41 -22.24,17.54 -8.89,4.13 -18.81,6.2 -29.78,6.2 -20.85,0 -37.3,-6.94 -49.34,-20.82 -10.1,-11.72 -15.15,-25.87 -15.15,-42.46 0,-17.45 6.12,-32.13 18.35,-44.04 12.23,-11.91 27.56,-17.87 45.98,-17.87 11.13,0 21.17,2.2 30.14,6.6 8.96,4.42 16.31,10.59 22.03,18.53 z"
         id="path12" /><path
         class="st21"
         d="m 193.64,337.15 41.69,89.39 h -9.65 l -14.06,-29.41 h -38.51 l -13.92,29.41 h -9.97 l 42.23,-89.39 z m -1.13,18.99 -15.32,32.36 h 30.56 z m 47.8,-10.24 v -8.75 h 48.98 v 8.75 h -19.93 v 80.64 h -9.12 V 345.9 Z m 61.92,-8.75 h 51.23 v 8.75 h -42.29 v 28.01 h 41.93 v 8.75 h -41.93 v 35.12 h 41.93 v 8.75 h -50.86 v -89.38 z m 149.91,16.59 -7.05,5.41 c -3.89,-5.06 -8.56,-8.9 -14.01,-11.52 -5.45,-2.61 -11.43,-3.92 -17.96,-3.92 -7.13,0 -13.73,1.71 -19.81,5.13 -6.08,3.42 -10.79,8.02 -14.13,13.79 -3.34,5.77 -5.01,12.27 -5.01,19.48 0,10.9 3.74,19.99 11.21,27.28 7.47,7.29 16.9,10.94 28.29,10.94 12.52,0 22.99,-4.9 31.42,-14.71 l 7.05,5.35 c -4.46,5.67 -10.02,10.06 -16.68,13.16 -6.67,3.1 -14.11,4.65 -22.33,4.65 -15.64,0 -27.97,-5.21 -37.01,-15.62 -7.58,-8.79 -11.36,-19.4 -11.36,-31.84 0,-13.08 4.59,-24.09 13.76,-33.03 9.18,-8.93 20.67,-13.4 34.49,-13.4 8.34,0 15.88,1.65 22.6,4.95 6.73,3.31 12.24,7.94 16.53,13.9 z m 17.81,-16.59 h 8.93 v 37.49 h 45.51 v -37.49 h 8.93 v 89.39 h -8.93 V 383.4 h -45.51 v 43.14 h -8.93 z m 85.19,0 h 51.23 v 8.75 h -42.29 v 28.01 H 606 v 8.75 h -41.93 v 35.12 H 606 v 8.75 h -50.86 z"
         id="path14" /></g></g></svg>
