<svg xmlns="http://www.w3.org/2000/svg" height="200" width="800"><defs><filter id="j" height="410.77" width="338.54" y="95.3" x="104.89" filterUnits="userSpaceOnUse"><feColorMatrix values="-1 0 0 0 1 0 -1 0 0 1 0 0 -1 0 1 0 0 0 1 0" result="source" color-interpolation-filters="sRGB"/></filter><filter id="i" height="410.77" width="338.54" y="97.13" x="104.84" filterUnits="userSpaceOnUse"><feColorMatrix values="-1 0 0 0 1 0 -1 0 0 1 0 0 -1 0 1 0 0 0 1 0" result="source" color-interpolation-filters="sRGB"/></filter><filter id="h" height="469.28" width="386.76" y="164.77" x="63.23" filterUnits="userSpaceOnUse"><feColorMatrix values="-1 0 0 0 1 0 -1 0 0 1 0 0 -1 0 1 0 0 0 1 0" result="source" color-interpolation-filters="sRGB"/></filter><filter id="g" height="469.3" width="398.97" y="165.1" x="338.58" filterUnits="userSpaceOnUse"><feColorMatrix values="-1 0 0 0 1 0 -1 0 0 1 0 0 -1 0 1 0 0 0 1 0" result="source" color-interpolation-filters="sRGB"/></filter><path id="k" d="M656 800H144C64.8 800 0 735.2 0 656V144C0 64.8 64.8 0 144 0h512c79.2 0 144 64.8 144 144v512c0 79.2-64.8 144-144 144z"/></defs><style>.st0{display:none}.st1{display:inline}.st5{fill:#0f406f}.st8{fill:#008fcf}.st9{display:inline;fill:#f7fbfc}.st10{font-family:&apos;CenturyGothic&apos;}.st11{font-size:24.224px}.st12{letter-spacing:9}.st13{font-size:157.7545px}.st14{fill:#fff}.st15{font-size:118.3159px}.st26{fill:#f7fbfc}</style><g fill="#f7fbfc"><path class="st26" d="M156.9203 162.16l-1.22 1.16c-.88-.86-1.84-1.52-2.89-1.96s-2.06-.67-3.06-.67c-1.23 0-2.41.3-3.53.91s-1.98 1.43-2.6 2.47c-.61 1.04-.92 2.14-.92 3.29 0 1.18.32 2.31.95 3.38.64 1.07 1.51 1.91 2.63 2.52s2.35.92 3.68.92c1.62 0 2.99-.46 4.11-1.37s1.78-2.1 1.99-3.55h-5.02v-1.52h6.79c-.01 2.43-.74 4.37-2.17 5.8s-3.35 2.15-5.74 2.15c-2.91 0-5.22-.99-6.92-2.98-1.31-1.53-1.96-3.29-1.96-5.3 0-1.49.37-2.88 1.12-4.17.75-1.28 1.78-2.29 3.08-3.01 1.31-.72 2.78-1.09 4.43-1.09 1.33 0 2.59.24 3.77.72 1.21.46 2.36 1.24 3.48 2.3zM172.7003 159.51h9.03v1.54h-7.45v4.94h7.39v1.54h-7.39v6.19h7.39v1.54h-8.96v-15.75zM194.6603 172.33l1.34-.8c.94 1.74 2.03 2.6 3.27 2.6.53 0 1.02-.12 1.49-.37.46-.25.82-.58 1.06-.99s.36-.85.36-1.32c0-.53-.18-1.04-.54-1.55-.49-.7-1.39-1.54-2.7-2.53s-2.13-1.71-2.45-2.15c-.56-.74-.83-1.55-.83-2.41 0-.69.16-1.31.49-1.87s.79-1.01 1.39-1.33c.6-.33 1.24-.49 1.94-.49.74 0 1.44.18 2.08.55.65.37 1.33 1.04 2.05 2.03l-1.29.97c-.59-.79-1.1-1.3-1.52-1.55s-.87-.38-1.37-.38c-.64 0-1.15.19-1.56.58-.4.38-.6.86-.6 1.42 0 .34.07.67.21 1 .14.32.4.67.78 1.05.21.2.89.72 2.03 1.57 1.36 1.01 2.3 1.9 2.81 2.69s.76 1.57.76 2.37c0 1.14-.43 2.13-1.3 2.98-.87.84-1.92 1.26-3.16 1.26-.96 0-1.82-.26-2.6-.77-.76-.5-1.48-1.36-2.14-2.56zM217.4903 161.06v-1.54h8.63v1.54h-3.51v14.21h-1.61v-14.21h-3.51zM246.6703 159.51l7.35 15.75h-1.7l-2.48-5.18h-6.79l-2.45 5.18h-1.76l7.44-15.75h.39zm2.95-3.41l.75 1.04c-.51.38-.95.63-1.3.76s-.73.2-1.12.2c-.51 0-1.04-.13-1.58-.4-.46-.23-.76-.36-.89-.4-.17-.05-.36-.08-.56-.08-.25 0-.49.04-.71.13-.23.09-.55.29-.98.61l-.71-1.09c.65-.7 1.45-1.05 2.41-1.05.46 0 1 .15 1.64.44.61.29 1.08.43 1.44.43.38 0 .92-.2 1.61-.59zm-3.15 6.76l-2.7 5.7h5.38l-2.68-5.7zM275.8003 159.12c2.39 0 4.38.8 5.99 2.39s2.41 3.55 2.41 5.88c0 2.31-.8 4.26-2.41 5.87-1.6 1.61-3.56 2.41-5.87 2.41-2.34 0-4.31-.8-5.92-2.4s-2.41-3.53-2.41-5.8c0-1.51.37-2.92 1.1-4.21s1.73-2.3 2.99-3.04c1.28-.74 2.65-1.1 4.12-1.1zm.07 1.53c-1.17 0-2.27.3-3.31.91s-1.86 1.42-2.45 2.45-.88 2.18-.88 3.44c0 1.87.65 3.45 1.95 4.74s2.86 1.93 4.69 1.93c1.22 0 2.35-.3 3.39-.89s1.85-1.4 2.43-2.43.87-2.17.87-3.43c0-1.25-.29-2.38-.87-3.39s-1.4-1.82-2.46-2.43-2.17-.9-3.36-.9zM317.1203 175.27v-15.75h3.27c2.36 0 4.07.19 5.13.57 1.53.54 2.72 1.46 3.58 2.78s1.29 2.9 1.29 4.72c0 1.58-.34 2.97-1.02 4.17s-1.57 2.08-2.66 2.66c-1.09.57-2.61.86-4.58.86h-5.01zm1.51-1.49h1.82c2.18 0 3.69-.14 4.53-.41 1.19-.39 2.12-1.08 2.79-2.08.68-1 1.02-2.23 1.02-3.68 0-1.52-.37-2.82-1.1-3.89-.74-1.08-1.76-1.81-3.07-2.21-.99-.3-2.61-.45-4.87-.45h-1.11v12.72zM345.2903 159.51h9.03v1.54h-7.45v4.94h7.39v1.54h-7.39v6.19h7.39v1.54h-8.96v-15.75zM401.4603 162.44l-1.24.95c-.69-.89-1.51-1.57-2.47-2.03s-2.02-.69-3.16-.69c-1.26 0-2.42.3-3.49.9s-1.9 1.41-2.49 2.43-.88 2.16-.88 3.43c0 1.92.66 3.52 1.98 4.81s2.98 1.93 4.98 1.93c2.21 0 4.05-.86 5.54-2.59l1.24.94c-.79 1-1.77 1.77-2.94 2.32-1.18.55-2.49.82-3.94.82-2.76 0-4.93-.92-6.52-2.75-1.33-1.55-2-3.42-2-5.61 0-2.31.81-4.25 2.43-5.82s3.64-2.36 6.08-2.36c1.47 0 2.8.29 3.98.87 1.17.58 2.14 1.4 2.9 2.45zM422.9003 159.51l7.35 15.75h-1.7l-2.48-5.18h-6.79l-2.45 5.18h-1.76l7.44-15.75h.39zm-.2 3.35l-2.7 5.7h5.39l-2.69-5.7zM442.9603 161.06v-1.54h8.63v1.54h-3.51v14.21h-1.61v-14.21h-3.51zM465.7203 159.51h9.03v1.54h-7.45v4.94h7.39v1.54h-7.39v6.19h7.39v1.54h-8.96v-15.75zM502.5103 173.55l2.34 2.95h-1.94l-1.6-2.04c-1.29.79-2.74 1.19-4.35 1.19-2.33 0-4.3-.8-5.91-2.4-1.6-1.6-2.41-3.53-2.41-5.8 0-1.51.37-2.92 1.1-4.21.74-1.3 1.74-2.31 3-3.04 1.27-.73 2.66-1.09 4.17-1.09 2.33 0 4.3.8 5.9 2.39 1.6 1.6 2.4 3.56 2.4 5.88 0 1.21-.22 2.32-.66 3.33-.43 1.02-1.11 1.96-2.04 2.84zm-.98-1.23c1.37-1.34 2.06-2.98 2.06-4.94 0-1.25-.29-2.38-.87-3.39s-1.4-1.82-2.46-2.43-2.17-.91-3.34-.91c-1.18 0-2.29.3-3.33.91-1.04.6-1.86 1.42-2.44 2.45-.59 1.03-.88 2.18-.88 3.45 0 1.87.65 3.45 1.94 4.74s2.85 1.93 4.68 1.93c1.25 0 2.39-.3 3.43-.91l-3.51-4.45h1.91l2.81 3.55zM520.3103 159.51h1.57v9.51c0 1.13.02 1.83.06 2.11.08.62.26 1.14.55 1.56s.72.77 1.32 1.05c.59.28 1.19.42 1.79.42.52 0 1.02-.11 1.5-.33s.88-.53 1.2-.92.56-.87.71-1.42c.11-.4.16-1.22.16-2.46v-9.51h1.57v9.51c0 1.41-.14 2.54-.41 3.41s-.82 1.62-1.65 2.26-1.82.96-2.99.96c-1.27 0-2.36-.3-3.27-.91s-1.51-1.41-1.82-2.41c-.19-.61-.29-1.72-.29-3.32v-9.51zM546.4703 159.51h9.03v1.54h-7.45v4.94h7.39v1.54h-7.39v6.19h7.39v1.54h-8.96v-15.75zM568.4303 172.33l1.34-.8c.94 1.74 2.03 2.6 3.27 2.6.53 0 1.02-.12 1.49-.37.46-.25.82-.58 1.06-.99s.36-.85.36-1.32c0-.53-.18-1.04-.54-1.55-.49-.7-1.39-1.54-2.7-2.53s-2.13-1.71-2.45-2.15c-.56-.74-.83-1.55-.83-2.41 0-.69.16-1.31.49-1.87s.79-1.01 1.39-1.33c.6-.33 1.24-.49 1.94-.49.74 0 1.44.18 2.08.55.65.37 1.33 1.04 2.05 2.03l-1.29.97c-.59-.79-1.1-1.3-1.52-1.55s-.87-.38-1.37-.38c-.63 0-1.15.19-1.56.58-.4.38-.61.86-.61 1.42 0 .34.07.67.21 1 .14.32.4.67.78 1.05.21.2.89.72 2.04 1.57 1.36 1.01 2.3 1.9 2.8 2.69s.76 1.57.76 2.37c0 1.14-.43 2.13-1.3 2.98-.87.84-1.92 1.26-3.16 1.26-.96 0-1.82-.26-2.6-.77-.76-.5-1.48-1.36-2.13-2.56zM592.8303 159.51h9.03v1.54h-7.45v4.94h7.39v1.54h-7.39v6.19h7.39v1.54h-8.96v-15.75z"/></g><path fill="#0f406f" class="st5" d="M613.6803 154.45l10.13-6.08c7.13 13.13 15.37 19.69 24.71 19.69 4 0 7.75-.93 11.26-2.8 3.51-1.86 6.18-4.36 8.02-7.49s2.75-6.45 2.75-9.97c0-4-1.35-7.91-4.05-11.75-3.73-5.29-10.53-11.67-20.42-19.12-9.94-7.51-16.12-12.94-18.55-16.29-4.21-5.62-6.32-11.69-6.32-18.23 0-5.19 1.24-9.91 3.73-14.18 2.48-4.27 5.98-7.63 10.49-10.09s9.41-3.69 14.71-3.69c5.62 0 10.87 1.39 15.76 4.17s10.06 7.9 15.52 15.35l-9.72 7.37c-4.48-5.94-8.3-9.86-11.46-11.75s-6.6-2.84-10.33-2.84c-4.81 0-8.74 1.46-11.79 4.38s-4.58 6.51-4.58 10.78c0 2.59.54 5.1 1.62 7.54 1.08 2.43 3.05 5.08 5.92 7.94 1.57 1.51 6.7 5.48 15.39 11.91 10.32 7.62 17.39 14.4 21.23 20.34 3.83 5.94 5.75 11.91 5.75 17.91 0 8.64-3.28 16.15-9.84 22.52s-14.54 9.56-23.94 9.56c-7.24 0-13.8-1.93-19.69-5.79-5.9-3.84-11.33-10.31-16.3-19.39z"/><path fill="#fff" class="st14" d="M703.7403 87.26h8.93v89.39h-8.93V87.26zM723.9103 160l7.6-4.56c5.35 9.84 11.53 14.77 18.53 14.77 3 0 5.81-.7 8.45-2.1 2.63-1.4 4.64-3.27 6.02-5.62s2.07-4.84 2.07-7.47c0-3-1.01-5.93-3.04-8.81-2.8-3.97-7.9-8.75-15.31-14.34-7.45-5.63-12.09-9.7-13.92-12.21-3.16-4.21-4.74-8.77-4.74-13.67 0-3.89.93-7.43 2.79-10.63s4.49-5.72 7.87-7.57c3.38-1.84 7.06-2.77 11.03-2.77 4.21 0 8.15 1.04 11.82 3.13s7.54 5.92 11.64 11.52l-7.29 5.53c-3.36-4.46-6.23-7.39-8.6-8.81s-4.95-2.13-7.75-2.13c-3.61 0-6.55 1.09-8.84 3.28s-3.43 4.88-3.43 8.08c0 1.94.4 3.83 1.22 5.65.81 1.82 2.29 3.81 4.44 5.96 1.17 1.13 5.02 4.11 11.55 8.93 7.74 5.71 13.04 10.8 15.92 15.25 2.88 4.46 4.31 8.93 4.31 13.43 0 6.48-2.46 12.11-7.38 16.89s-10.91 7.17-17.96 7.17c-5.43 0-10.35-1.45-14.77-4.34-4.43-2.9-8.5-7.75-12.23-14.56z"/><path fill="#0f406f" class="st5" d="M132.0803 48.46l-9.4 7.21c-5.19-6.75-11.41-11.87-18.68-15.35s-15.25-5.23-23.94-5.23c-9.51 0-18.31 2.28-26.41 6.85-8.1 4.56-14.38 10.69-18.84 18.39s-6.68 16.35-6.68 25.97c0 14.53 4.98 26.66 14.95 36.38s22.54 14.58 37.72 14.58c16.69 0 30.65-6.53 41.89-19.61l9.4 7.13c-5.94 7.56-13.36 13.41-22.24 17.54-8.89 4.13-18.81 6.2-29.78 6.2-20.85 0-37.3-6.94-49.34-20.82-10.1-11.72-15.15-25.87-15.15-42.46 0-17.45 6.12-32.13 18.35-44.04s27.56-17.87 45.98-17.87c11.13 0 21.17 2.2 30.14 6.6 8.96 4.42 16.31 10.59 22.03 18.53z"/><g fill="#fff"><path class="st14" d="M188.8803 56.14l41.69 89.39h-9.65l-14.06-29.41h-38.51l-13.92 29.41h-9.97l42.23-89.39h2.19zm-1.13 18.99l-15.32 32.36h30.56l-15.24-32.36zM235.5503 64.89v-8.75h48.98v8.75h-19.93v80.64h-9.12V64.89h-19.93zM297.4703 56.14h51.23v8.75h-42.29V92.9h41.93v8.75h-41.93v35.12h41.93v8.75h-50.86V56.14zM447.3803 72.73l-7.05 5.41c-3.89-5.06-8.56-8.9-14.01-11.52-5.45-2.61-11.43-3.92-17.96-3.92-7.13 0-13.73 1.71-19.81 5.13s-10.79 8.02-14.13 13.79-5.01 12.27-5.01 19.48c0 10.9 3.74 19.99 11.21 27.28s16.9 10.94 28.29 10.94c12.52 0 22.99-4.9 31.42-14.71l7.05 5.35c-4.46 5.67-10.02 10.06-16.68 13.16-6.67 3.1-14.11 4.65-22.33 4.65-15.64 0-27.97-5.21-37.01-15.62-7.58-8.79-11.36-19.4-11.36-31.84 0-13.08 4.59-24.09 13.76-33.03 9.18-8.93 20.67-13.4 34.49-13.4 8.34 0 15.88 1.65 22.6 4.95 6.73 3.31 12.24 7.94 16.53 13.9zM465.1903 56.14h8.93v37.49h45.51V56.14h8.93v89.39h-8.93v-43.14h-45.51v43.14h-8.93V56.14zM550.3803 56.14h51.23v8.75h-42.29V92.9h41.92v8.75h-41.93v35.12h41.93v8.75h-50.86V56.14z"/></g></svg>