<?xml version="1.0" encoding="utf-8"?>
<!-- Generator: Adobe Illustrator 25.0.0, SVG Export Plug-In . SVG Version: 6.00 Build 0)  -->
<svg version="1.1" xmlns="http://www.w3.org/2000/svg" xmlns:xlink="http://www.w3.org/1999/xlink" x="0px" y="0px" width="2000px"
	 height="1000px" viewBox="0 0 2000 1000" style="enable-background:new 0 0 2000 1000;" xml:space="preserve">
<style type="text/css">
	.st0{display:none;}
	.st1{display:inline;fill:#008FCF;}
	.st2{display:inline;}
	.st3{font-family:'TheBoldFont';}
	.st4{font-size:1195.843px;}
	.st5{fill:#FFFFFF;}
	.st6{fill:#C6C6C6;}
	.st7{fill:#9D9D9C;}
</style>
<g id="Backround" class="st0">
	<rect y="1" class="st1" width="2000" height="1000"/>
</g>
<g id="C_x27_s_Backup" class="st0">
	<text id="C_x5F_Esq_1_" transform="matrix(1 0 0 1 352.8991 929.2477)" class="st2 st3 st4">C</text>
	<text id="C_x5F_Drt_1_" transform="matrix(1 0 0 1 727.7818 928.0609)" class="st2 st3 st4">C</text>
</g>
<g id="C_Esquerdo" class="st0">
</g>
<g id="Camada_5" class="st0">
</g>
<g id="C_Direiro">
	<g>
		<path id="Branco" class="st5" d="M722.07,802.33c-2.22,0.07,31.29-39.04,29.06-39.04c-26.05,0-51.58-4.97-76.6-14.91
			c-25.03-9.94-47.47-24.85-67.36-44.73c-19.2-19.88-33.93-41.98-44.21-66.32c-10.29-24.33-15.42-50.2-15.42-77.63
			c0-27.42,5.13-53.47,15.42-78.14c10.28-24.68,25.01-46.96,44.21-66.84c19.88-19.88,42.33-34.78,67.36-44.72
			c25.01-9.94,50.55-14.91,76.6-14.91c2.78,0,5.56,0.07,8.34,0.18c14.29-21.99,30.99-42.56,50.11-61.69
			c31.76-31.77,67.07-56.72,105.92-74.85c-7.19-3.45-14.51-6.67-21.94-9.64c-46.28-18.51-93.58-27.77-141.9-27.77
			c-48.33,0-95.79,9.26-142.41,27.77s-88.42,46.26-125.41,83.27c-35.63,35.65-62.87,76.28-81.7,121.85
			c-7.09,17.15-19.58,51.13-25.27,96.31c-2.04,16.23,9.08,34.4,10.14,51.49c2.51,40.63,33.79,63.34,66.8,143.25
			c18.83,45.59,56.11,61.29,91.73,97.62c37,37.02,52.89,6.37,99.15,24.53c46.26,18.16,27.1,24,75.78,24
			c49.35,0,5.8,11.23,51.73-6.93c6.36-2.52,86.61,45.54,92.8,42.67c-37.72-17.8-24.28-27.71-55.43-58.88
			C789.71,808,736.71,825.47,722.07,802.33z"/>
		<path id="Cizento_Claro_1_" class="st6" d="M701.88,766.76c-50.63-5-97.81-18.93-141.51-41.81
			c-43.69-22.87-81.82-53.76-114.37-92.66c-31.15-37.23-54.2-77.86-69.14-121.89c-1.97,16.01-2.96,32.32-2.96,48.94
			c0,50.73,9.42,98.88,28.25,144.46c18.83,45.59,46.08,86.55,81.7,122.88c37,37.02,78.63,64.61,124.89,82.78
			c46.26,18.16,93.74,27.24,142.42,27.24c49.35,0,96.99-9.08,142.92-27.24c45.93-18.16,87.4-45.75,124.42-82.78L914.91,722.22
			c-20.26,11.05-41.63,20.35-64.13,27.87c-39.24,13.12-63.1,11.54-81.66,12.72c-2.04,0.13,13.42-0.58-3.23-0.01
			c0,0-0.66,0.06-6.29,0.19C756.62,763.07,722.03,768.74,701.88,766.76z"/>
		<path id="Cizento_Escuro_1_" class="st7" d="M870.79,726.61c-31.51,24.91-65.57,43.89-102.19,56.93
			c-46.53,16.57-94.45,24.01-143.77,22.31c-48.65-1.67-95.79-12.38-141.4-32.13c-24.13-10.44-46.22-23.76-67.57-39.39
			c17.62,34.19,39.75,65.82,67.69,94.31c37,37.02,78.63,64.61,124.89,82.78c46.26,18.16,93.74,27.24,142.42,27.24
			c49.35,0,96.99-9.08,142.92-27.24c45.93-18.16,87.4-45.75,124.42-82.78L895.83,705.25C887.92,713.16,879.57,720.27,870.79,726.61z
			"/>
		<path id="Branco__x5B_1_x5D__3_" class="st5" d="M1019,262.81c-0.32-0.23-0.77-0.57-1.36-1.07"/>
		<path class="st5" d="M1031.67,301.27c-1.23-0.59-24.47-40.7-23.37-40.02c5.87,3.59-148.83-72.07-154.04-66.47
			c-50.36,54.04-80.24,121.06-85.44,133.25"/>
		<path class="st5" d="M768.82,328.02c-0.54,1.27-0.82,1.95-0.82,1.95c-8.34,20.55-32.43,84.31-32.43,166.38
			c0,56.45,10.82,111.71,32.43,165.77c16.54,41.32,39.39,79.49,68.56,114.51c8.98,10.78,18.57,21.27,28.75,31.45l142.94-142.96
			c-23.22-23.23-40.64-49.66-52.25-79.29c-11.6-29.63-17.42-59.66-17.42-90.09s5.82-60.25,17.42-89.49
			c11.62-29.24,29.03-55.46,52.25-78.68c7-7,13.67-13.45,24.11-20.65c16.84-11.61,2.28-34.3-3.01-52.79"/>
		<path id="Cizento_Escuro_3_" class="st7" d="M1614.49,461.95c-4.48-57.54-20.11-112.6-46.86-165.16
			c-27.79-54.57-64.28-100.57-109.46-138.03c-28.49-23.62-50.54-36.34-91.23-59.25c-32.06-18.05-15.32,28.41-65.06,6.29
			c-7.19-3.2-22.81-8.04-29.67-2.4c-5.7,4.69,48.32,21.18,9.87,23.73c-54.48,3.63,25.19-6.47-26.13,18.13
			c74.49,35.49-82.3-14.42-37.87,54.4c4.84-0.14-41.18,58.42-32.66,58.88c29.21,1.56,51.46,7.97,62.05,11.41
			c5.32,1.73,13.39,4.55,22.81,8.73c20.29,8.99,39.31,20.85,57.05,35.56c24.26,20.11,43.85,44.81,58.79,74.13
			c14.17,29.07,22.52,59.2,25.03,90.38c2.53,31.19-1.18,62.03-11.09,92.54c-9.92,30.53-24.99,57.47-45.24,80.82
			c-20.24,23.37-44.63,42.64-73.18,57.82c-29.32,14.94-59.69,23.42-91.14,25.43c-8.15,0.52-27.85,1.44-35.84,1.2
			c-44.18,69.24-92.19,123-166.69,158.88c16.88,7.88,34.41,15.18,52.4,21.02c54.18,17.6,107.43,24.59,165.49,21.11
			c58.06-3.48,113.87-17.89,168.44-45.71c52.79-27.54,97.92-63.28,135.36-107.21c37.44-43.92,65.34-94.11,83.68-150.56
			C1611.91,576.88,1618.96,519.51,1614.49,461.95z"/>
		<path id="Cizento_Claro_2_" class="st6" d="M1538.09,623.55c-43.26,40.65-91.87,71.21-145.83,91.67
			c-53.97,20.48-110.73,30.07-170.26,28.79c-27.72-0.85-53.28-4.08-77.83-9.67c-3.48-0.79-49.88-12.4-86.38-31.75
			c-3.58-1.9-6.62-3.7-9.09-5.24c-2.89-1.81-5.04-3.28-6.87-4.55c-3.59-2.49-9.39-6.57-17.21-12.29
			c-5.22-4.62-10.44-9.24-15.66-13.86c-46.91,49.19-92.91,97.44-139.82,146.63c44.01,42.56,94.02,73.05,146.72,94.33
			c54.15,21.87,109.24,30.91,166.89,29.9c56.87-0.99,112.13-12.58,165.81-34.78c53.68-22.19,101.78-55.32,144.31-99.4
			c40.94-43.23,71.98-91.7,93.09-145.43c16.18-41.19,25.85-84.04,29.02-128.55C1594.2,563.51,1568.57,594.91,1538.09,623.55z"/>
		<path class="st7" d="M1033.06,306.36c21.51-16.13,44.79-28.27,69.85-36.41c26.32-8.55,53.83-12.43,82.49-11.65
			c44.44-68.82,107.44-123.1,181.93-158.59C1316,75.1,1263.09,59.58,1208.61,55.95c-58.2-3.87-114.19,2.94-167.96,20.41
			c-34.5,11.21-68.85,23.54-99.8,43c-17.22,10.83-32.86,24.2-49.07,37.63c-13.69,11.35-26.16,25.26-38.25,38.18
			C923.6,214.81,985.52,253.95,1033.06,306.36z"/>
		<path id="Branco__x5B_1_x5D__1_" class="st5" d="M1420.03,795.1c-58.13,12.02-115.55,12.64-172.24,1.86
			c-56.71-10.78-110.1-32.29-160.17-64.51c-23.18-15.23-43.28-31.35-61.28-48.96c-2.55-2.5-36.02-36.65-57.02-72.24
			c-2.06-3.49-3.71-6.61-5.01-9.23c-1.52-3.06-2.58-5.43-3.48-7.47c-1.76-3.99-4.57-10.51-8.24-19.48
			c-2.03-6.67-5.11-11.88-7.14-18.55c-65.71,17.39-130.38,33.32-196.09,50.72c15.25,59.3,40.57,111.72,75.98,157.29
			c35.41,45.57,77.94,83,127.6,112.29c49.15,29.31,102.57,48.63,159.51,57.09c29.19,4.34,95.95,11.45,174.99-9.23
			c9.89-2.59,18.1-4.85,23.54-6.61c19.92-6.34,43.54-15.71,69.19-29.04c28.72-14.92,50.09-30.13,62.68-39.62
			c35.34-26.64,65.66-59.12,91.64-95.4C1498.92,772.25,1460.99,786.63,1420.03,795.1z"/>
	</g>
	<path class="st7" d="M853.54,195.18"/>
	<path class="st7" d="M1367.32,99.71"/>
</g>
</svg>
